<?xml version="1.0" encoding="utf-8"?>
<!-- Generator: Adobe Illustrator 23.0.3, SVG Export Plug-In . SVG Version: 6.00 Build 0)  -->
<svg version="1.1" id="Layer_1" xmlns="http://www.w3.org/2000/svg" xmlns:xlink="http://www.w3.org/1999/xlink" x="0px" y="0px"
	 viewBox="0 0 512 512" style="enable-background:new 0 0 512 512;" xml:space="preserve">
<style type="text/css">
	.st0{fill:#F6B863;}
	.st1{fill:#EAA14E;}
	.st2{fill:#EEEFEE;}
	.st3{fill:#DBD8DD;}
</style>
<g id="Capa_1">
	<g>
		<g id="icon_62_">
			<path class="st0" d="M503.6,206.7V487c0.1,7-2.9,13.7-8.1,18.3l-0.7,0.7c-4.5,3.8-10.2,5.9-16.1,5.9H33.3c-5.9,0-11.5-2.1-16-5.9
				c-0.3-0.2-0.6-0.4-0.7-0.7c-5.3-4.6-8.3-11.3-8.2-18.3V206.7c-0.1-6.2,2.3-12.2,6.6-16.7c1.8-2.1,3.9-3.8,6.2-5.2
				c3.7-2,7.8-3.1,12.1-3.1h445.4c7,0.1,13.6,3.1,18.5,8.1C501.3,194.5,503.6,200.5,503.6,206.7L503.6,206.7z"/>
			<path class="st1" d="M497.1,189.8c-1.8,2.2-241,192.4-241,192.4L15,190l0.1-0.1v-0.1l227.4-185c7.9-6.5,19.3-6.5,27.2,0
				L497.1,189.8z"/>
			<path class="st2" d="M446.3,60.8v169.9L256.1,382.3L65.8,230.6V60.8H446.3z"/>
			<path class="st1" d="M495.5,505.3c-0.2,0.3-0.5,0.5-0.7,0.7L280.6,363.2l19.6-15.8L495.5,505.3z"/>
			<path class="st1" d="M231.5,363.1L17.3,506c-0.3-0.2-0.6-0.4-0.7-0.7l195.2-158.2L231.5,363.1z"/>
			<g>
				<path class="st3" d="M108,105.4h296v12.8H108V105.4z"/>
				<path class="st3" d="M108,155h296v12.8H108V155z"/>
				<path class="st3" d="M108,204.5h296v12.8H108V204.5z"/>
				<path class="st3" d="M157.7,254.1h196.6v12.8H157.7V254.1z"/>
			</g>
		</g>
	</g>
</g>
<g>
	<path class="st0" d="M256.1,76.6c-53,0-95.9,43-95.9,95.9c0,86.1,77.3,157.7,93.1,171.5c1.6,1.4,4,1.4,5.7,0
		c15.9-13.8,93.1-85.4,93.1-171.5C352,119.6,309,76.6,256.1,76.6z"/>
	<path class="st1" d="M256.1,76.6c-5.8,0-11.6,0.5-17.1,1.5c44.8,8.1,78.8,47.3,78.8,94.4c0,70.1-51.3,130.7-78.8,158.1
		c6.3,6.3,11.3,10.8,14.3,13.4c1.6,1.4,4,1.4,5.6,0c15.9-13.8,93.1-85.4,93.1-171.5C352,119.6,309,76.6,256.1,76.6z"/>
	<path class="st2" d="M326.2,172.6c0,38.7-31.4,70.2-70.2,70.2s-70.2-31.4-70.2-70.2s31.4-70.2,70.2-70.2S326.2,133.8,326.2,172.6z"
		/>
	<path class="st3" d="M256.1,102.4c-5.9,0-11.6,0.7-17,2.1c30.5,7.6,53.1,35.2,53.1,68.1s-22.6,60.5-53.1,68.1
		c5.4,1.4,11.1,2.1,17,2.1c38.7,0,70.2-31.4,70.2-70.2S294.8,102.4,256.1,102.4z"/>
	<path d="M256.1,72.6c-55.1,0-100,44.9-100,100c0,87.9,78.7,160.8,94.5,174.6c3.1,2.7,7.8,2.7,11,0c15.8-13.7,94.5-86.7,94.5-174.6
		C356.1,117.5,311.2,72.6,256.1,72.6z M256.2,341.1c-0.1,0.1-0.2,0.1-0.3,0c-15.3-13.3-91.7-84.1-91.7-168.5
		c0-50.7,41.2-91.9,91.9-91.9s91.9,41.2,91.9,91.9C347.9,257,271.5,327.7,256.2,341.1z"/>
	<path d="M314.7,127.1c-1.4-1.8-3.9-2.1-5.7-0.7c-1.8,1.4-2.1,3.9-0.7,5.7c8.1,10.4,12.7,22.6,13.7,35.5h-23.6
		c-1.4,0-2.7,0.7-3.4,1.9l-9.4,15.2v-43.5c0-4-5.2-5.6-7.4-2.3l-19.4,28.8c-8.5,0.5-11.8-1.2-13.7,1.9l-9.4,15.1v-43.6
		c0-4-5.2-5.6-7.4-2.3l-19.4,28.8h-18.5c2.5-34.2,31.1-61.3,65.9-61.3c15.3,0,29.6,5.1,41.5,14.6c1.7,1.4,4.3,1.1,5.7-0.6
		c1.4-1.7,1.1-4.3-0.6-5.7c-13.1-10.6-29.7-16.4-46.5-16.4c-62.5,0-96.6,72.7-57.8,120.7c1.4,1.7,4,2,5.7,0.6s2-4,0.6-5.7
		c-8.9-11-13.9-24.1-14.5-38.2h20.7c1.3,0,2.6-0.7,3.4-1.8l13.2-19.6v44.4c0,4.1,5.3,5.6,7.5,2.1l15.7-25.2h10.2
		c1.3,0,2.6-0.7,3.4-1.8l13.2-19.6v44.4c0,4.1,5.4,5.6,7.5,2.1l15.7-25.4h21.5c-1.6,35-30.6,63-66,63c-14.8,0-28.9-4.8-40.5-13.9
		c-1.8-1.4-4.3-1.1-5.7,0.7s-1.1,4.3,0.7,5.7c13.1,10.2,28.9,15.6,45.5,15.6C317.6,246.8,352.3,175.4,314.7,127.1z"/>
</g>
</svg>
